<mxfile host="app.diagrams.net" modified="2023-04-26T06:03:55.545Z" agent="5.0 (Windows NT 10.0; Win64; x64) AppleWebKit/537.36 (KHTML, like Gecko) Chrome/112.0.0.0 Safari/537.36" etag="elZpHZuqqyBdPIc1bdQx" version="20.8.18" type="github">
  <diagram name="Page-1" id="Oc6CQo8ekBl4Brf0j7Al">
    <mxGraphModel dx="1728" dy="937" grid="1" gridSize="10" guides="1" tooltips="1" connect="1" arrows="1" fold="1" page="1" pageScale="1" pageWidth="827" pageHeight="1169" math="0" shadow="0">
      <root>
        <mxCell id="0" />
        <mxCell id="1" parent="0" />
        <mxCell id="q-_oNytgvoyUPZALIger-1" value="ZOPT客户端" style="rounded=0;whiteSpace=wrap;html=1;" parent="1" vertex="1">
          <mxGeometry x="287.93" y="50" width="120" height="60" as="geometry" />
        </mxCell>
        <mxCell id="PGP-2ye4WsQQfsTclMWA-12" style="edgeStyle=none;rounded=0;orthogonalLoop=1;jettySize=auto;html=1;strokeColor=default;strokeWidth=1;startArrow=none;startFill=0;sourcePerimeterSpacing=0;" edge="1" parent="1" source="q-_oNytgvoyUPZALIger-4" target="q-_oNytgvoyUPZALIger-5">
          <mxGeometry relative="1" as="geometry" />
        </mxCell>
        <mxCell id="q-_oNytgvoyUPZALIger-4" value="iomp-task 服务&lt;br&gt;执行定时任务" style="rounded=0;whiteSpace=wrap;html=1;" parent="1" vertex="1">
          <mxGeometry x="570" y="545" width="120" height="60" as="geometry" />
        </mxCell>
        <mxCell id="q-_oNytgvoyUPZALIger-5" value="Oracle" style="shape=cylinder3;whiteSpace=wrap;html=1;boundedLbl=1;backgroundOutline=1;size=15;" parent="1" vertex="1">
          <mxGeometry x="317.930003637101" y="529.9968295491459" width="60" height="86.12" as="geometry" />
        </mxCell>
        <mxCell id="q-_oNytgvoyUPZALIger-11" style="edgeStyle=orthogonalEdgeStyle;rounded=0;orthogonalLoop=1;jettySize=auto;html=1;strokeWidth=1;exitX=0.5;exitY=1;exitDx=0;exitDy=0;" parent="1" source="PGP-2ye4WsQQfsTclMWA-9" target="q-_oNytgvoyUPZALIger-5" edge="1">
          <mxGeometry relative="1" as="geometry">
            <mxPoint x="223.87999636289896" y="373.77871636803013" as="sourcePoint" />
            <Array as="points">
              <mxPoint x="224" y="410" />
              <mxPoint x="348" y="410" />
            </Array>
          </mxGeometry>
        </mxCell>
        <mxCell id="PGP-2ye4WsQQfsTclMWA-6" style="edgeStyle=none;rounded=0;orthogonalLoop=1;jettySize=auto;html=1;entryX=0.5;entryY=0;entryDx=0;entryDy=0;strokeWidth=1;" edge="1" parent="1" source="PGP-2ye4WsQQfsTclMWA-2" target="PGP-2ye4WsQQfsTclMWA-9">
          <mxGeometry relative="1" as="geometry">
            <mxPoint x="227.92999636289892" y="326.9358712145445" as="targetPoint" />
            <Array as="points">
              <mxPoint x="348" y="280" />
              <mxPoint x="224" y="280" />
            </Array>
          </mxGeometry>
        </mxCell>
        <mxCell id="PGP-2ye4WsQQfsTclMWA-2" value="微服务切换&lt;br&gt;引擎" style="ellipse;whiteSpace=wrap;html=1;aspect=fixed;" vertex="1" parent="1">
          <mxGeometry x="307.93" y="154" width="80" height="80" as="geometry" />
        </mxCell>
        <mxCell id="PGP-2ye4WsQQfsTclMWA-5" value="" style="endArrow=none;html=1;rounded=0;strokeWidth=1;entryX=0.5;entryY=1;entryDx=0;entryDy=0;strokeColor=default;sourcePerimeterSpacing=0;startArrow=classic;startFill=1;" edge="1" parent="1" source="PGP-2ye4WsQQfsTclMWA-2" target="q-_oNytgvoyUPZALIger-1">
          <mxGeometry width="50" height="50" relative="1" as="geometry">
            <mxPoint x="440" y="290" as="sourcePoint" />
            <mxPoint x="490" y="240" as="targetPoint" />
          </mxGeometry>
        </mxCell>
        <mxCell id="PGP-2ye4WsQQfsTclMWA-11" style="edgeStyle=none;rounded=0;orthogonalLoop=1;jettySize=auto;html=1;entryX=0.5;entryY=0;entryDx=0;entryDy=0;entryPerimeter=0;strokeWidth=1;" edge="1" parent="1" source="PGP-2ye4WsQQfsTclMWA-7" target="q-_oNytgvoyUPZALIger-5">
          <mxGeometry relative="1" as="geometry">
            <Array as="points">
              <mxPoint x="458" y="410" />
              <mxPoint x="348" y="410" />
            </Array>
          </mxGeometry>
        </mxCell>
        <mxCell id="PGP-2ye4WsQQfsTclMWA-7" value="微服务" style="rounded=0;whiteSpace=wrap;html=1;fillColor=default;" vertex="1" parent="1">
          <mxGeometry x="414" y="330" width="87.07" height="50" as="geometry" />
        </mxCell>
        <mxCell id="PGP-2ye4WsQQfsTclMWA-9" value="存储过程" style="rounded=0;whiteSpace=wrap;html=1;fillColor=default;" vertex="1" parent="1">
          <mxGeometry x="180" y="330" width="87.07" height="50" as="geometry" />
        </mxCell>
        <mxCell id="PGP-2ye4WsQQfsTclMWA-10" value="" style="endArrow=none;html=1;rounded=0;strokeWidth=1;entryX=0.5;entryY=1;entryDx=0;entryDy=0;exitX=0.5;exitY=0;exitDx=0;exitDy=0;startArrow=classic;startFill=1;" edge="1" parent="1" source="PGP-2ye4WsQQfsTclMWA-7" target="PGP-2ye4WsQQfsTclMWA-2">
          <mxGeometry width="50" height="50" relative="1" as="geometry">
            <mxPoint x="200" y="430" as="sourcePoint" />
            <mxPoint x="250" y="380" as="targetPoint" />
            <Array as="points">
              <mxPoint x="458" y="280" />
              <mxPoint x="348" y="280" />
            </Array>
          </mxGeometry>
        </mxCell>
      </root>
    </mxGraphModel>
  </diagram>
</mxfile>
